<?xml version="1.0" encoding="UTF-8" ?>
<!DOCTYPE svg PUBLIC "-//W3C//DTD SVG 1.1//EN" "http://www.w3.org/Graphics/SVG/1.1/DTD/svg11.dtd">
<svg width="669pt" height="567pt" viewBox="0 0 669 567" version="1.1" xmlns="http://www.w3.org/2000/svg">
<g id="#ffffffff">
</g>
<g id="#c0c0c0ff">
<path fill="#1a1a1a" stroke="#FFB100" stroke-width="1" opacity="1.00" d=" M 523.87 2.72 C 528.89 2.37 533.79 0.62 538.86 1.00 C 545.62 2.08 551.03 6.78 557.56 8.58 C 563.78 10.82 570.39 9.00 576.74 8.50 C 583.47 7.68 590.26 8.55 596.82 10.06 C 598.73 10.54 600.96 11.10 601.85 13.09 C 604.54 17.93 605.75 23.40 607.48 28.62 C 609.45 35.30 612.49 41.86 612.33 48.98 C 612.55 53.06 611.61 57.54 613.82 61.24 C 615.78 64.52 617.45 67.97 618.47 71.67 C 619.43 75.38 621.80 78.44 624.08 81.43 C 618.35 84.88 611.48 83.92 605.16 85.06 C 601.41 85.89 596.86 83.62 593.67 86.30 C 591.81 90.13 592.42 94.62 592.11 98.75 C 593.94 98.57 595.77 98.40 597.61 98.22 C 597.13 99.39 596.66 100.56 596.19 101.73 C 597.53 103.42 598.90 105.10 600.20 106.83 C 596.73 107.37 593.13 108.29 589.66 107.31 C 586.36 106.41 583.21 105.03 580.03 103.79 C 578.24 108.62 577.14 113.67 575.54 118.56 C 574.83 121.06 572.37 123.68 569.56 122.76 C 565.51 121.47 561.30 120.76 557.04 120.95 C 556.42 124.54 555.79 128.14 555.11 131.73 C 553.19 131.55 551.28 131.40 549.37 131.25 C 549.19 134.82 549.04 138.39 548.87 141.96 C 538.96 145.16 528.44 145.82 518.13 144.57 C 515.92 142.48 512.98 140.79 511.75 137.92 C 512.23 136.00 513.61 134.48 514.64 132.83 C 511.65 130.85 507.58 129.51 506.61 125.66 C 506.08 122.43 502.13 123.15 499.86 123.82 C 495.39 125.70 491.99 129.34 487.95 131.93 C 485.66 133.27 484.28 135.55 483.56 138.05 C 486.90 137.43 490.18 136.54 493.42 135.51 C 493.49 136.05 493.63 137.13 493.70 137.67 C 490.54 138.96 487.44 140.64 484.02 141.08 C 480.06 139.68 477.14 136.45 473.69 134.17 C 476.40 133.78 478.74 132.41 480.53 130.36 C 477.00 128.43 473.30 126.35 469.15 126.39 C 464.77 126.36 460.39 126.15 456.01 126.37 C 452.07 126.38 450.10 131.34 446.05 130.89 C 439.79 130.75 435.81 125.16 430.84 122.16 C 430.13 119.74 429.48 117.30 428.78 114.88 C 425.01 117.03 421.43 120.03 417.01 120.61 C 412.41 120.31 407.43 119.09 404.21 115.54 C 406.67 109.48 409.76 103.17 415.60 99.72 C 418.19 97.71 422.32 96.71 423.03 93.07 C 424.73 86.24 425.42 79.16 427.56 72.45 C 429.74 68.52 433.40 65.65 436.51 62.47 C 439.54 59.35 443.79 58.14 447.70 56.53 C 450.69 55.46 451.95 52.32 453.69 49.93 C 455.49 49.37 457.46 49.09 459.03 47.97 C 464.83 43.29 468.57 36.73 472.73 30.66 C 475.39 27.12 478.12 23.21 482.29 21.33 C 486.86 19.81 491.86 20.16 496.39 18.44 C 499.90 17.10 503.57 15.88 506.57 13.57 C 508.52 10.98 508.72 7.40 510.92 4.97 C 514.86 2.86 519.54 3.28 523.87 2.72 Z" />
<path fill="#1a1a1a" stroke="#FFB100" stroke-width="1" opacity="1.00" d=" M 606.03 86.99 C 612.53 85.94 619.30 86.32 625.53 83.88 C 626.29 88.02 627.24 92.14 628.97 96.00 C 631.58 101.99 630.47 108.65 630.77 114.98 C 631.08 126.38 631.07 137.78 630.30 149.15 C 630.93 156.73 627.93 163.97 628.40 171.54 C 620.16 170.66 615.13 162.94 607.52 160.52 C 604.24 159.53 601.76 162.65 599.60 164.59 C 594.02 169.66 592.68 177.43 588.44 183.42 C 586.01 187.25 582.54 190.67 581.62 195.27 C 580.86 200.09 581.33 205.00 581.63 209.85 C 583.47 210.77 585.63 211.31 587.11 212.82 C 588.69 215.70 588.85 219.29 591.18 221.77 C 593.87 224.71 597.01 227.18 599.94 229.86 C 598.76 230.91 597.58 231.96 596.37 232.96 C 592.86 232.29 589.36 231.56 585.83 230.99 C 578.98 229.82 571.93 231.15 565.14 229.43 C 562.61 230.81 560.15 232.42 557.35 233.23 C 553.06 234.32 548.49 232.73 544.26 234.21 C 540.72 235.49 537.45 237.37 534.14 239.12 C 532.19 236.02 530.44 232.77 528.01 230.01 C 524.95 226.75 520.48 225.56 516.67 223.45 C 514.01 222.15 512.55 219.44 510.38 217.56 C 505.16 217.43 499.79 217.83 494.98 215.34 C 493.76 216.08 492.56 216.83 491.35 217.57 C 487.98 215.82 484.48 214.35 480.94 213.01 C 483.78 208.54 486.26 203.78 489.73 199.75 C 492.63 196.30 498.11 197.47 501.09 194.09 C 502.41 192.47 505.12 190.16 502.93 188.16 C 500.14 185.91 495.82 186.51 493.17 183.87 C 490.79 182.01 488.82 178.04 491.58 175.63 C 494.44 171.68 499.79 174.38 503.55 172.65 C 507.69 168.43 508.05 162.06 511.13 157.16 C 511.97 154.99 514.30 152.55 512.89 150.16 C 510.96 150.80 509.25 151.91 507.42 152.77 C 505.12 151.76 502.65 151.14 500.13 151.16 C 500.69 152.82 501.29 154.47 501.89 156.13 C 499.88 156.11 497.87 156.10 495.87 156.09 C 495.34 152.51 494.42 148.86 495.05 145.24 C 496.46 142.39 499.38 140.65 500.85 137.84 C 500.74 135.69 499.72 132.12 496.95 132.72 C 493.07 133.00 489.53 134.78 485.91 136.05 C 489.77 133.57 493.35 130.72 496.67 127.56 C 498.52 125.70 501.23 125.40 503.67 124.85 C 504.95 128.44 507.64 131.17 510.89 133.06 C 510.68 135.51 510.37 137.94 510.18 140.39 C 512.91 142.86 515.29 146.71 519.41 146.71 C 529.80 147.29 540.51 147.11 550.36 143.33 C 550.52 139.96 550.67 136.58 550.86 133.21 C 552.62 133.44 554.37 133.67 556.14 133.89 C 557.27 130.27 557.96 126.53 558.38 122.76 C 562.46 122.51 566.57 123.25 569.73 126.01 C 572.28 124.58 575.14 123.23 576.66 120.58 C 579.32 116.14 579.65 110.86 580.77 105.92 C 583.86 107.26 586.89 108.90 590.24 109.53 C 593.91 109.92 597.54 108.93 601.13 108.32 C 600.54 106.00 599.76 103.74 599.04 101.46 C 599.67 100.20 600.32 98.94 601.01 97.69 C 598.51 97.13 595.98 96.68 593.47 96.22 C 594.26 93.16 594.45 89.51 596.90 87.24 C 599.87 86.65 603.01 87.59 606.03 86.99 Z" />
<path fill="#1a1a1a" stroke="#FFB100" stroke-width="1" opacity="1.00" d=" M 382.50 118.02 C 389.36 116.01 396.32 114.37 403.35 113.13 C 403.47 113.56 403.70 114.43 403.81 114.86 C 404.16 116.33 404.48 117.82 404.82 119.30 C 408.86 120.38 412.80 122.03 416.98 122.44 C 420.73 121.92 423.97 119.68 427.39 118.18 C 430.98 125.28 437.14 133.37 446.05 132.72 C 450.86 133.44 453.16 127.43 457.90 127.85 C 464.78 127.90 472.54 126.75 478.26 131.51 C 476.07 131.61 473.88 131.61 471.70 131.71 C 472.17 136.66 477.22 138.49 479.98 142.00 C 475.78 143.38 471.34 143.57 467.05 144.40 C 466.47 145.49 466.82 146.77 466.88 147.94 C 467.63 152.96 466.33 157.95 465.72 162.91 C 463.49 164.14 461.23 165.32 459.02 166.57 C 456.96 165.45 454.94 164.28 452.91 163.12 C 450.11 164.77 446.13 165.96 445.61 169.70 C 443.84 178.43 447.57 186.91 450.95 194.75 C 452.04 201.22 449.20 207.82 445.08 212.74 C 443.83 212.04 442.58 211.35 441.33 210.67 C 439.50 211.72 437.73 212.93 435.72 213.58 C 431.44 214.46 427.21 211.27 422.99 212.89 C 416.11 215.20 409.49 219.00 404.78 224.61 C 404.76 227.17 405.56 229.68 405.40 232.25 C 402.95 234.37 399.38 234.71 397.02 236.99 C 393.90 240.03 391.42 243.64 388.80 247.10 C 386.05 245.11 382.95 242.40 379.31 243.06 C 375.26 244.30 371.48 246.30 367.48 247.67 C 360.42 250.13 354.60 255.27 350.45 261.41 C 349.19 262.82 348.26 265.17 346.06 265.11 C 343.31 265.54 342.16 262.11 341.65 259.98 C 343.29 255.82 346.60 252.62 348.99 248.89 C 345.74 248.36 342.36 247.99 339.48 246.25 C 338.14 245.76 336.66 244.19 335.22 245.18 C 332.76 246.60 333.13 249.90 332.53 252.30 C 332.06 257.08 329.99 261.49 327.33 265.43 C 325.77 262.69 323.34 259.94 323.79 256.56 C 324.04 253.61 324.30 250.66 324.37 247.70 C 320.20 248.09 316.04 248.64 311.92 249.39 C 310.93 247.18 309.84 244.99 309.26 242.64 C 308.71 239.50 309.47 236.34 309.85 233.23 C 307.63 231.59 305.31 230.10 303.07 228.49 C 304.61 225.03 306.85 221.80 307.63 218.05 C 307.59 214.79 305.11 211.88 301.96 211.12 C 296.88 209.58 291.71 208.23 286.88 205.97 C 287.88 203.94 288.85 201.88 289.87 199.86 C 286.06 197.45 281.93 195.61 277.63 194.32 C 276.42 188.90 275.93 183.21 278.06 177.95 C 279.66 176.39 281.03 174.62 282.52 172.95 C 280.02 172.21 277.51 171.42 274.91 171.22 C 270.11 170.60 267.10 175.18 263.81 177.85 C 259.59 181.33 259.34 187.15 258.00 192.06 C 257.24 191.98 255.72 191.83 254.97 191.75 C 254.62 186.89 254.10 182.03 252.84 177.31 C 256.47 168.05 257.35 157.85 261.86 148.93 C 264.45 143.52 270.87 141.79 276.39 141.56 C 285.83 141.48 292.63 149.09 299.60 154.40 C 303.12 157.72 308.26 156.77 312.60 157.81 C 315.85 159.06 318.41 161.87 321.99 162.35 C 327.04 163.15 331.93 164.78 337.02 165.33 C 340.19 165.76 343.00 163.99 345.83 162.86 C 348.73 161.40 352.00 162.59 355.04 162.70 C 360.83 163.56 366.81 160.95 370.58 156.58 C 373.78 152.10 374.47 146.45 376.44 141.42 C 378.99 133.79 383.59 126.38 382.50 118.02 Z" />
<path fill="#1a1a1a" stroke="#FFB100" stroke-width="1" opacity="1.00" d=" M 144.13 120.18 C 147.55 122.32 151.15 124.20 154.27 126.76 C 157.89 129.73 159.83 134.10 161.88 138.19 C 164.46 143.54 168.21 148.38 169.62 154.25 C 171.39 162.45 177.41 169.51 176.70 178.24 C 176.55 184.74 170.13 188.40 168.16 194.14 C 167.08 200.79 167.96 207.80 171.05 213.83 C 173.70 212.47 176.28 210.81 179.23 210.20 C 183.47 210.23 187.51 212.14 191.80 211.75 C 196.73 211.41 201.67 211.08 206.62 211.51 C 209.28 211.52 212.22 212.07 214.66 210.71 C 216.36 209.03 216.65 206.46 217.55 204.33 C 220.81 203.49 224.39 203.21 227.22 201.22 C 231.22 197.76 232.50 192.07 236.77 188.85 C 241.67 185.08 247.38 182.55 252.31 178.81 C 252.37 182.80 252.53 186.84 253.42 190.74 C 253.81 192.93 256.38 193.43 257.91 194.63 C 259.16 191.56 260.20 188.42 261.29 185.29 C 262.91 179.88 268.27 177.05 271.38 172.61 C 274.66 172.63 278.00 172.93 280.87 174.68 C 278.71 174.98 276.56 175.27 274.39 175.46 C 275.88 182.11 274.57 189.02 276.34 195.65 C 280.20 196.84 283.98 198.27 287.67 199.92 C 286.77 202.15 285.83 204.37 284.97 206.61 C 290.33 209.43 296.00 211.61 301.87 213.12 C 304.19 213.51 306.06 215.50 305.96 217.91 C 304.98 221.75 302.38 224.95 301.35 228.77 C 303.18 230.92 305.55 232.51 307.75 234.25 C 306.97 239.99 307.64 245.81 310.19 251.06 C 314.44 250.42 318.70 249.80 322.96 249.17 C 322.43 253.32 320.40 257.97 323.04 261.81 C 324.35 263.81 325.71 266.97 328.59 266.67 C 333.26 261.42 334.74 254.14 335.08 247.31 C 338.96 248.83 343.12 249.30 347.26 249.39 C 345.29 251.72 343.26 254.01 341.52 256.52 C 340.72 257.78 339.55 259.18 340.22 260.76 C 341.24 264.18 343.88 266.76 346.19 269.37 C 344.77 271.21 343.14 272.88 341.73 274.72 C 342.73 277.81 342.31 281.01 341.03 283.96 C 338.99 288.60 341.28 293.99 338.53 298.44 C 332.82 309.46 327.42 320.63 321.75 331.67 C 320.26 334.69 318.75 338.75 321.43 341.59 C 326.01 346.45 332.58 348.91 337.12 353.83 C 339.83 357.18 341.76 361.10 344.72 364.26 C 350.13 370.02 354.97 377.29 363.27 378.96 C 364.80 383.47 367.48 388.04 366.37 392.97 C 365.80 397.56 363.41 401.60 360.97 405.44 C 357.51 405.34 353.99 405.50 350.70 406.65 C 345.21 408.21 340.55 411.84 334.93 413.01 C 333.12 413.51 331.23 413.82 329.53 414.64 C 326.81 418.09 326.69 422.76 325.80 426.90 C 320.35 428.25 314.86 429.42 309.45 430.91 C 308.48 429.68 307.52 428.46 306.57 427.25 C 304.77 429.06 303.07 430.96 301.36 432.84 C 300.00 430.04 298.83 426.44 295.45 425.57 C 291.91 425.08 288.41 426.24 284.94 426.72 C 282.22 427.35 278.81 427.39 277.15 430.02 C 274.83 433.30 272.62 436.68 269.60 439.37 C 268.87 438.09 268.15 436.80 267.43 435.53 C 261.68 434.37 255.97 433.03 250.23 431.80 C 249.54 429.97 249.48 427.56 247.57 426.51 C 244.04 424.38 240.00 423.36 236.14 422.04 C 234.54 426.55 232.37 430.85 229.27 434.52 C 226.77 437.19 227.80 441.03 227.93 444.30 C 225.49 447.03 223.38 450.14 220.41 452.33 C 215.95 451.62 211.62 449.82 207.00 450.31 C 206.12 451.99 205.71 454.05 204.28 455.37 C 201.67 456.91 198.59 457.44 196.01 459.03 C 192.76 461.54 191.16 465.53 188.27 468.40 C 184.82 470.18 180.56 469.37 177.08 471.15 C 174.07 473.66 177.40 478.96 174.26 481.33 C 169.97 482.50 165.43 481.58 161.04 481.94 C 155.50 477.60 150.29 472.27 148.82 465.12 C 146.91 460.13 153.73 457.59 154.24 453.11 C 153.69 451.05 151.42 450.00 150.04 448.51 C 147.41 451.03 145.08 453.91 142.04 455.96 C 137.91 457.96 132.64 457.71 129.29 461.24 C 127.25 464.02 126.67 467.55 125.37 470.69 C 123.61 465.93 123.15 460.81 121.36 456.05 C 122.87 452.78 125.13 449.14 123.78 445.43 C 120.66 442.30 116.07 440.59 114.35 436.18 C 111.67 436.16 108.99 436.08 106.32 435.99 C 106.56 431.37 107.03 426.73 106.60 422.12 C 105.68 415.17 102.46 408.81 100.86 402.03 C 100.20 399.66 100.79 397.24 101.36 394.93 C 102.14 391.87 101.83 388.67 101.55 385.57 C 95.73 381.00 91.29 374.77 84.85 371.01 C 83.32 371.55 81.93 372.41 80.52 373.20 C 79.58 372.89 78.65 372.58 77.71 372.29 C 77.37 375.79 77.10 379.37 75.73 382.65 C 74.63 385.28 72.29 387.03 70.22 388.87 C 68.04 387.86 65.85 386.89 63.64 385.95 C 59.67 391.07 56.77 396.87 53.54 402.46 C 47.14 393.16 42.39 382.90 36.94 373.05 C 32.91 365.79 30.92 357.68 27.96 349.99 C 25.74 344.26 24.30 338.28 22.65 332.38 C 20.94 326.14 17.89 320.40 15.45 314.45 C 13.59 309.96 10.67 306.06 7.94 302.10 C 5.19 297.85 3.05 293.25 0.49 288.90 C 4.23 287.10 8.27 285.89 11.86 283.79 C 13.86 280.39 13.58 276.11 15.51 272.64 C 17.14 269.45 19.09 265.22 23.33 265.44 C 27.87 265.01 28.72 270.34 29.55 273.64 C 31.46 273.73 33.36 273.81 35.26 273.89 C 35.88 275.39 36.67 276.85 36.99 278.46 C 36.86 280.79 35.13 282.96 35.82 285.32 C 36.74 288.34 37.85 291.29 38.72 294.33 C 44.25 294.75 49.38 297.13 54.94 297.43 C 60.27 297.60 63.77 302.60 68.99 303.13 C 77.48 304.23 85.63 300.76 94.04 300.63 C 99.07 300.38 102.67 304.40 107.16 305.84 C 110.16 306.09 112.78 304.16 115.44 303.04 C 114.81 301.09 114.13 299.15 113.52 297.19 C 115.55 296.64 117.57 296.06 119.55 295.34 C 123.90 293.96 124.17 287.73 128.71 286.68 C 133.79 285.23 138.87 283.75 143.73 281.66 C 144.05 271.77 143.85 261.89 143.92 252.00 C 143.88 208.06 144.10 164.12 144.13 120.18 Z" />
<path fill="#1a1a1a" stroke="#FFB100" stroke-width="1" opacity="1.00" d=" M 495.31 135.13 C 496.32 134.78 497.33 134.42 498.34 134.06 C 500.28 138.60 494.94 140.77 493.52 144.39 C 492.76 148.35 493.27 152.55 494.74 156.29 C 495.72 158.79 498.60 159.71 501.01 160.16 C 503.94 159.95 503.82 156.68 504.55 154.56 C 506.51 154.62 508.47 154.66 510.44 154.66 C 505.94 159.47 505.98 166.51 502.76 172.06 C 498.95 171.66 494.35 170.07 491.29 173.26 C 488.73 174.92 487.61 178.16 488.95 180.98 C 491.23 186.30 497.11 188.34 502.42 189.13 C 500.95 191.02 499.82 193.40 497.67 194.61 C 495.25 195.18 492.75 195.13 490.30 195.27 C 487.73 199.92 484.08 203.86 481.55 208.54 C 480.59 211.07 477.76 212.22 475.37 210.87 C 471.26 210.00 469.74 205.94 467.76 202.78 C 464.35 203.66 461.45 205.98 457.95 206.54 C 455.56 206.58 453.15 204.98 452.27 202.76 C 452.36 199.29 453.37 195.94 453.95 192.54 C 453.27 192.30 451.92 191.82 451.25 191.58 C 448.42 185.14 446.68 178.09 447.00 171.04 C 446.91 167.75 450.18 166.64 452.59 165.39 C 456.55 169.08 462.49 168.56 466.76 165.70 C 468.19 162.07 467.83 158.06 468.13 154.25 C 468.84 154.03 470.27 153.59 470.98 153.37 C 470.24 150.73 469.36 148.13 468.17 145.66 C 473.30 146.80 477.96 144.04 482.87 143.09 C 487.64 142.26 492.11 140.29 496.86 139.32 C 496.34 137.92 495.83 136.52 495.31 135.13 Z" />
<path fill="#1a1a1a" stroke="#FFB100" stroke-width="1" opacity="1.00" d=" M 459.53 208.14 C 462.18 207.42 464.46 205.83 466.79 204.44 C 468.64 207.37 470.23 210.70 473.18 212.70 C 476.41 214.44 480.10 215.06 483.40 216.66 C 485.78 217.70 487.94 219.27 490.49 219.91 C 493.37 219.77 496.17 217.97 499.08 219.03 C 502.17 220.08 505.40 219.67 508.59 219.65 C 510.71 221.08 512.26 223.21 514.45 224.58 C 517.88 226.67 521.92 227.72 525.08 230.27 C 528.21 232.99 529.99 237.00 533.43 239.41 C 535.33 240.71 537.42 241.70 539.46 242.77 C 538.37 244.12 537.29 245.47 536.22 246.83 C 538.00 253.49 534.48 259.81 534.63 266.43 C 534.48 268.31 534.90 270.71 532.98 271.86 C 527.93 275.48 522.73 278.91 518.00 282.97 C 515.01 285.69 510.95 286.51 507.56 288.52 C 505.68 290.34 504.79 292.90 503.57 295.16 C 500.31 293.41 497.69 290.75 495.53 287.79 C 488.67 288.02 482.79 291.81 476.34 293.63 C 473.19 294.56 471.56 297.67 469.00 299.48 C 465.65 301.32 461.55 301.32 458.33 303.43 C 456.33 305.14 455.07 307.52 453.71 309.74 C 450.64 315.20 446.83 320.20 443.22 325.31 C 439.65 330.76 432.89 332.18 427.50 335.14 C 431.96 342.54 435.43 350.52 440.48 357.57 C 443.65 361.60 442.99 367.86 439.65 371.57 C 436.89 373.65 433.30 374.04 430.17 375.34 C 427.12 376.38 425.10 379.02 422.91 381.20 C 419.13 380.30 415.22 381.02 411.41 380.48 C 409.24 379.78 407.52 378.20 405.65 376.95 C 402.16 377.01 398.84 375.99 395.83 374.26 C 393.00 372.57 389.69 374.09 386.81 374.84 C 383.00 375.82 380.36 378.92 376.95 380.65 C 371.65 379.04 366.18 378.01 360.86 376.42 C 354.34 374.40 351.21 367.87 346.60 363.40 C 343.28 360.25 341.03 356.25 338.45 352.54 C 333.86 347.29 326.80 345.02 322.13 339.86 C 320.26 337.57 322.29 334.57 323.14 332.26 C 329.03 320.76 334.65 309.12 340.59 297.64 C 343.19 292.87 341.25 287.25 343.01 282.25 C 345.32 270.74 351.82 260.22 360.96 252.89 C 365.95 248.58 373.36 249.37 378.32 244.91 C 382.70 245.32 386.69 247.25 389.00 251.13 C 391.75 246.89 394.33 242.49 397.75 238.76 C 400.32 235.86 404.52 236.09 408.03 235.53 C 407.57 232.14 407.01 228.77 406.30 225.42 C 408.85 223.56 411.26 221.54 413.72 219.56 C 419.29 215.06 427.01 215.16 433.76 216.01 C 436.42 216.56 438.62 214.69 440.83 213.53 C 442.29 213.68 443.82 214.36 445.28 213.96 C 447.96 212.30 449.80 209.62 451.92 207.34 C 454.43 207.71 456.97 208.49 459.53 208.14 Z" />
<path fill="#1a1a1a" stroke="#FFB100" stroke-width="1" opacity="1.00" d=" M 632.03 210.24 C 643.90 212.81 656.08 211.48 668.10 212.31 C 667.81 219.23 665.59 225.82 663.17 232.24 C 659.41 242.11 657.32 252.52 655.96 262.97 C 655.16 269.55 652.40 275.66 649.30 281.44 C 645.96 287.49 640.54 291.94 635.71 296.74 C 632.61 299.90 628.62 301.90 624.65 303.74 C 619.16 306.23 615.54 311.23 611.59 315.56 C 605.54 322.56 598.69 329.09 594.43 337.42 C 592.17 341.66 591.30 346.55 588.52 350.52 C 586.32 353.65 583.88 356.64 582.09 360.05 C 575.45 373.66 567.19 386.44 558.19 398.59 C 556.84 395.78 555.92 392.61 553.68 390.34 C 546.58 384.16 537.43 380.58 528.10 379.71 C 523.90 379.66 519.68 379.36 515.62 378.21 C 517.40 374.29 520.17 370.90 521.81 366.93 C 521.82 363.77 517.87 363.51 515.76 362.22 C 514.73 358.59 513.68 354.97 512.46 351.40 C 513.52 350.50 514.58 349.60 515.64 348.70 C 515.63 345.86 514.75 342.73 516.10 340.10 C 518.59 336.91 521.66 334.15 523.55 330.51 C 525.44 326.95 529.42 323.13 527.16 318.82 C 523.18 308.40 511.13 305.11 505.23 296.13 C 506.40 293.80 507.11 291.01 509.18 289.28 C 511.60 288.04 514.34 287.68 516.94 286.95 C 521.89 280.71 529.39 277.42 535.18 272.13 C 536.76 270.80 536.01 268.54 536.19 266.76 C 535.87 263.43 537.05 260.27 537.90 257.12 C 538.78 253.90 538.52 250.53 538.33 247.25 C 539.38 246.10 540.44 244.96 541.51 243.82 C 540.97 242.44 540.44 241.06 539.91 239.69 C 541.12 238.63 542.32 237.56 543.63 236.61 C 546.57 234.25 550.56 235.92 553.96 235.72 C 558.14 236.15 561.66 233.55 565.09 231.59 C 569.02 232.17 572.98 232.22 576.94 232.31 C 583.01 232.42 588.88 235.20 594.98 234.06 C 597.68 233.23 600.07 231.71 602.41 230.16 C 611.48 232.63 620.92 232.81 630.25 232.18 C 631.01 224.88 631.26 217.53 632.03 210.24 Z" />
<path fill="#1a1a1a" stroke="#FFB100" stroke-width="1" opacity="1.00" d=" M 499.50 357.43 C 503.50 356.34 507.25 354.51 511.09 352.96 C 512.26 356.49 512.81 360.27 514.54 363.58 C 516.15 365.23 518.35 366.09 520.32 367.23 C 518.09 370.10 515.57 372.88 514.27 376.34 C 513.84 377.45 513.86 379.14 515.12 379.73 C 520.51 382.83 527.00 380.24 532.68 382.18 C 539.42 384.30 545.68 387.69 551.68 391.37 C 555.12 393.28 556.26 397.89 555.39 401.49 C 551.84 408.92 544.86 413.80 538.27 418.33 C 532.48 423.16 525.90 427.17 521.14 433.12 C 510.60 445.84 499.35 458.03 486.77 468.77 C 482.20 472.63 476.47 474.97 472.43 479.48 C 466.37 486.29 458.19 490.56 450.95 495.92 C 441.77 501.83 433.15 508.87 422.84 512.79 C 417.85 514.69 413.17 517.35 408.10 519.04 C 401.99 520.87 395.93 517.82 389.87 517.27 C 383.78 516.45 377.02 518.20 373.07 523.13 C 370.85 525.59 371.62 529.12 371.58 532.13 C 363.61 531.88 356.06 527.93 348.05 528.92 C 342.90 529.55 342.09 535.72 338.62 538.64 C 331.91 539.38 325.51 536.70 319.24 534.71 C 310.44 531.86 301.00 532.07 292.16 529.34 C 292.79 527.67 293.42 526.01 294.05 524.36 C 293.41 524.18 292.13 523.82 291.48 523.64 C 289.20 521.85 286.51 520.72 283.80 519.77 C 287.09 518.41 290.41 517.16 293.79 516.05 C 292.26 513.05 291.16 509.67 288.69 507.31 C 285.53 505.38 281.81 504.64 278.30 503.61 C 271.03 501.40 263.63 505.68 256.34 503.66 C 255.81 501.12 258.15 499.30 259.32 497.33 C 261.90 494.18 263.29 490.34 264.58 486.54 C 265.77 482.65 269.02 480.04 271.71 477.20 C 275.21 477.82 278.72 478.42 282.25 478.87 C 279.91 473.06 277.46 467.27 275.95 461.18 C 281.02 458.33 286.66 456.67 292.51 456.77 C 293.44 455.03 294.26 453.21 295.48 451.65 C 298.84 451.67 302.35 453.33 305.57 451.67 C 310.42 450.12 313.37 445.37 314.36 440.62 C 314.19 437.56 313.30 434.61 313.03 431.57 C 317.89 430.99 322.58 429.60 327.24 428.18 C 327.73 424.60 327.86 420.85 329.48 417.55 C 330.58 415.06 333.76 415.43 335.95 414.68 C 341.30 413.77 345.54 410.02 350.72 408.61 C 354.26 407.48 358.00 407.38 361.68 407.38 C 364.79 402.77 367.90 397.85 368.38 392.17 C 369.04 388.13 366.99 384.40 365.89 380.64 C 369.68 380.53 373.15 382.23 376.83 382.78 C 381.42 381.12 385.04 377.37 389.92 376.39 C 394.06 375.32 397.96 377.60 401.90 378.47 C 405.71 379.25 408.81 381.77 412.45 382.98 C 416.65 383.42 420.95 382.73 425.04 381.71 C 427.61 380.07 429.96 378.03 432.84 376.93 C 435.51 375.82 438.42 375.35 441.00 373.99 C 443.21 372.31 444.26 369.59 445.66 367.28 C 449.60 370.98 452.78 375.54 457.29 378.59 C 462.37 381.07 468.16 381.38 473.61 382.60 C 474.38 376.22 480.04 371.40 479.41 364.80 C 481.75 362.70 483.98 360.07 487.20 359.36 C 491.26 358.48 495.47 358.52 499.50 357.43 Z" />
<path fill="#1a1a1a" stroke="#FFB100" stroke-width="1" opacity="1.00" d=" M 83.36 372.05 C 89.29 376.55 95.28 381.29 99.71 387.29 C 99.69 390.82 98.41 394.27 98.78 397.83 C 99.68 405.93 102.55 413.61 104.53 421.48 C 105.81 426.29 104.81 431.28 103.52 435.99 C 109.22 438.12 114.67 440.90 119.64 444.42 C 120.62 445.12 121.76 445.94 121.85 447.27 C 122.17 451.27 118.87 454.88 120.14 458.90 C 121.21 463.33 122.65 467.66 123.99 472.02 C 125.10 471.78 126.21 471.54 127.32 471.29 C 127.99 468.73 128.49 466.07 129.79 463.75 C 132.60 460.65 137.00 460.03 140.71 458.52 C 144.12 457.42 146.06 454.14 149.01 452.32 C 150.44 452.36 151.85 452.64 153.27 452.87 C 151.18 455.64 148.81 458.18 146.28 460.55 C 147.52 466.82 148.91 473.64 153.76 478.21 C 156.33 480.61 159.07 483.51 162.84 483.65 C 166.87 483.87 171.09 484.18 174.97 482.88 C 178.86 480.96 177.29 476.00 177.15 472.61 C 181.17 471.70 185.32 471.50 189.28 470.35 C 191.77 467.72 192.87 464.02 195.62 461.60 C 198.49 459.15 202.42 458.61 205.52 456.55 C 206.83 455.26 207.61 453.57 208.59 452.05 C 212.61 452.84 216.63 454.19 220.77 454.00 C 224.13 451.90 226.43 448.49 229.75 446.30 C 229.64 443.17 228.85 439.69 230.89 436.98 C 233.52 432.97 235.28 428.50 236.57 423.90 C 239.57 424.91 242.68 425.78 245.38 427.50 C 247.39 428.81 247.90 431.35 248.86 433.40 C 252.86 434.33 256.93 434.94 260.92 435.92 C 264.24 436.72 266.98 438.87 270.13 440.09 C 276.06 438.83 275.96 429.98 282.11 429.11 C 286.25 428.28 290.42 427.13 294.67 427.23 C 297.58 429.06 299.37 432.15 301.61 434.69 C 303.11 432.99 304.67 431.36 306.16 429.67 C 309.34 432.54 311.29 436.38 312.87 440.30 C 310.30 444.11 308.24 449.02 303.57 450.64 C 300.81 450.98 298.16 449.70 295.42 449.63 C 293.35 451.04 291.95 453.17 290.39 455.08 C 285.70 455.76 280.80 456.31 276.65 458.78 C 275.94 459.43 274.26 459.83 274.57 461.05 C 275.53 466.79 277.10 472.54 280.17 477.55 C 277.37 476.58 274.52 475.20 271.49 475.45 C 269.25 476.83 267.48 478.84 265.81 480.85 C 262.60 484.82 262.37 490.29 259.47 494.45 C 257.66 497.49 254.71 500.06 254.15 503.71 C 256.00 506.02 259.30 505.74 261.96 505.72 C 266.97 505.61 272.05 503.34 277.01 505.04 C 280.54 506.19 284.23 506.92 287.63 508.42 C 289.14 510.17 289.89 512.43 290.89 514.49 C 287.07 515.97 282.95 517.79 281.60 522.03 C 284.85 522.74 288.08 523.55 291.25 524.59 C 290.81 525.95 290.35 527.31 289.91 528.68 C 283.93 529.75 279.35 535.53 272.98 534.39 C 266.21 533.87 259.58 532.36 252.97 530.91 C 249.11 530.02 245.31 531.45 241.55 532.08 C 238.56 532.66 235.48 532.74 232.56 533.63 C 229.86 535.49 227.97 538.34 225.09 539.98 C 222.11 541.66 220.25 544.60 217.68 546.76 C 212.63 548.25 207.27 545.49 202.27 547.35 C 199.96 547.97 197.66 549.18 195.20 548.80 C 190.80 548.15 186.54 546.26 182.03 546.66 C 179.68 546.74 178.45 549.05 176.93 550.49 C 171.49 550.81 165.19 549.77 160.85 553.86 C 155.47 558.77 148.40 561.47 143.54 567.00 L 142.50 567.00 C 139.19 565.47 135.65 564.56 132.03 564.07 C 127.00 563.48 123.08 560.04 119.01 557.35 C 118.10 554.59 118.01 550.53 114.62 549.65 C 108.93 547.65 103.05 545.58 96.91 546.36 C 97.03 542.88 98.58 538.73 96.37 535.67 C 92.31 532.60 86.45 533.45 81.93 534.99 C 77.94 536.53 80.21 541.41 80.23 544.53 C 77.25 540.60 75.87 535.37 77.66 530.64 C 78.93 528.19 82.95 526.88 82.26 523.73 C 80.93 516.27 76.55 509.87 71.88 504.09 C 67.82 499.22 66.92 492.68 63.53 487.43 C 62.59 485.54 60.26 486.09 58.56 485.88 C 58.18 482.25 58.34 478.58 58.99 474.99 C 61.05 475.56 63.11 476.22 65.23 476.58 C 68.02 477.15 70.24 474.82 72.02 473.03 C 76.92 467.82 76.60 460.08 76.41 453.42 C 75.22 443.73 74.33 433.45 68.90 425.04 C 64.99 418.63 59.35 413.42 55.90 406.72 C 55.51 399.60 61.05 394.18 64.16 388.28 C 66.98 388.95 70.26 391.00 72.96 388.96 C 76.94 385.88 77.78 380.54 79.41 376.08 C 80.76 377.02 82.11 377.96 83.46 378.91 C 83.40 376.62 83.38 374.33 83.36 372.05 Z" />
</g>
<g id="#fcfcfcff">
</g>
</svg>
